<svg width="45" height="45" viewBox="0 0 45 45" fill="none" xmlns="http://www.w3.org/2000/svg">
<path d="M8.29967 38.2514L5.14124 2.8125H39.8587L36.6961 38.2458L22.4789 42.1875L8.29967 38.2514Z" fill="#1572B6"/>
<path d="M22.5 39.1753L33.9891 35.9901L36.6919 5.71075H22.5V39.1753Z" fill="#33A9DC"/>
<path d="M22.5 18.5498H28.2516L28.6481 14.099H22.5V9.75232H33.3984L33.2944 10.9181L32.227 22.8965H22.5V18.5498Z" fill="white"/>
<path d="M22.5267 29.8378L22.5071 29.8434L17.6667 28.5356L17.3574 25.0692H12.9938L13.6027 31.8937L22.5056 34.3659L22.5267 34.3603V29.8378Z" fill="#EBEBEB"/>
<path d="M27.8817 22.7123L27.3586 28.5328L22.5112 29.8406V34.3631L31.4212 31.8937L31.4873 31.1597L32.2425 22.7123H27.8817Z" fill="white"/>
<path d="M22.5155 9.75232V14.099H12.0164L11.9292 13.1217L11.731 10.9181L11.6269 9.75232H22.5155ZM22.5 18.5498V22.8965H17.7202L17.633 21.9192L17.4361 19.7156L17.332 18.5498H22.5Z" fill="#EBEBEB"/>
</svg>
