<svg width="45" height="45" viewBox="0 0 45 45" fill="none" xmlns="http://www.w3.org/2000/svg">
<path d="M8.29968 38.2514L5.13983 2.8125H39.8601L36.6961 38.2458L22.4789 42.1875L8.29968 38.2514Z" fill="#E44F26"/>
<path d="M22.5 39.1753L33.9891 35.9901L36.6919 5.71075H22.5V39.1753Z" fill="#F1662A"/>
<path d="M22.5 18.8536H16.7484L16.3519 14.4028H22.5V10.0561H11.6016L11.7056 11.2233L12.773 23.2003H22.5V18.8536ZM22.5 30.1416L22.4803 30.1472L17.64 28.8408L17.3306 25.3744H12.967L13.5759 32.1975L22.4803 34.6697L22.5 34.6641V30.1416Z" fill="#EBEBEB"/>
<path d="M22.4846 18.8536V23.2003H27.8367L27.3333 28.838L22.4846 30.1458V34.6683L31.396 32.1975L31.4607 31.4634L32.4816 20.0208L32.5885 18.8536H22.4846ZM22.4846 10.0561V14.4028H32.9836L33.0708 13.4269L33.2691 11.2233L33.3732 10.0561H22.4846Z" fill="white"/>
</svg>
