<svg width="45" height="45" viewBox="0 0 45 45" fill="none" xmlns="http://www.w3.org/2000/svg">
<path d="M2.8125 2.8125H42.1875V42.1875H2.8125V2.8125Z" fill="#F5DE19"/>
<path d="M29.2627 33.5742C29.5982 34.2557 30.1194 34.8284 30.7663 35.2265C31.4132 35.6246 32.1594 35.8318 32.9189 35.8242C34.4517 35.8242 35.4319 35.0578 35.4319 33.9961C35.4319 32.7304 34.425 32.2776 32.7375 31.5393L31.8122 31.1428C29.1403 30.0051 27.3684 28.5806 27.3684 25.5684C27.3684 22.7939 29.4778 20.6803 32.7867 20.6803C33.8579 20.6029 34.9281 20.8427 35.8639 21.3696C36.7997 21.8965 37.5596 22.6873 38.0489 23.6433L35.1563 25.4925C34.9678 25.0185 34.6398 24.6129 34.2156 24.3296C33.7914 24.0463 33.2911 23.8987 32.7811 23.9062C32.5586 23.8839 32.3339 23.9083 32.1213 23.9776C31.9086 24.047 31.7128 24.1599 31.5463 24.3091C31.3797 24.4584 31.246 24.6407 31.1538 24.8444C31.0616 25.0481 31.0128 25.2688 31.0106 25.4925C31.0106 26.602 31.6983 27.052 33.2859 27.7425L34.2113 28.139C37.3556 29.4876 39.1331 30.8615 39.1331 33.9511C39.1331 37.2825 36.5161 39.1078 33.0019 39.1078C31.6326 39.195 30.2674 38.8842 29.0709 38.2127C27.8744 37.5412 26.8978 36.5378 26.2589 35.3236L29.2627 33.5742ZM16.1916 33.8948C16.7724 34.9256 17.3011 35.7975 18.5724 35.7975C19.7874 35.7975 20.5552 35.3222 20.5552 33.4729V20.8912H24.255V33.5222C24.255 37.3528 22.005 39.0965 18.7299 39.0965C17.5722 39.1598 16.4224 38.8713 15.4318 38.2689C14.4411 37.6666 13.6559 36.7785 13.1794 35.7215L16.1916 33.8948Z" fill="black"/>
</svg>
