<svg width="39" height="53" viewBox="0 0 39 53" fill="none" xmlns="http://www.w3.org/2000/svg">
<g clip-path="url(#clip0_256_159)">
<path d="M12.5766 40.9713C12.5766 40.9713 10.566 42.1469 14.0076 42.5447C18.1771 43.023 20.3079 42.9545 24.9028 42.08C24.9028 42.08 26.1108 42.8416 27.7977 43.5013C17.4976 47.94 4.48626 43.2441 12.5766 40.9713ZM11.318 35.179C11.318 35.179 9.06281 36.8575 12.507 37.2156C16.9609 37.6776 20.4782 37.7154 26.5647 36.537C26.5647 36.537 27.4065 37.3952 28.7302 37.8645C16.2766 41.5261 2.40554 38.1532 11.318 35.179Z" fill="#5382A1"/>
<path d="M21.9287 25.3535C24.4668 28.2914 21.2619 30.9353 21.2619 30.9353C21.2619 30.9353 27.7062 27.5903 24.7466 23.4015C21.9825 19.4954 19.8626 17.5543 31.3382 10.8625C31.3382 10.8625 13.3254 15.3859 21.9287 25.3533" fill="#E76F00"/>
<path d="M35.5516 45.2556C35.5516 45.2556 37.0395 46.4882 33.9128 47.4419C27.9674 49.2529 9.16729 49.7998 3.94464 47.514C2.06731 46.693 5.58797 45.5533 6.69536 45.3141C7.85028 45.0622 8.51038 45.1093 8.51038 45.1093C6.42251 43.6303 -4.98468 48.0131 2.71614 49.2681C23.7172 52.6926 40.9989 47.7262 35.5516 45.2556ZM13.5434 29.1776C13.5434 29.1776 3.98059 31.4615 10.1571 32.2906C12.7649 32.6417 17.9636 32.5624 22.8062 32.1543C26.7638 31.8188 30.7376 31.105 30.7376 31.105C30.7376 31.105 29.3422 31.7059 28.3326 32.3991C18.6216 34.9671 -0.138324 33.7725 5.26241 31.1456C9.82983 28.9257 13.5435 29.1776 13.5435 29.1776M30.6982 38.819C40.5701 33.6611 36.0057 28.7045 32.8199 29.3724C32.039 29.5357 31.6909 29.6772 31.6909 29.6772C31.6909 29.6772 31.9808 29.2208 32.5344 29.0232C38.8368 26.7952 43.684 35.5941 30.4998 39.0789C30.4998 39.0791 30.6526 38.9418 30.6982 38.819Z" fill="#5382A1"/>
<path d="M24.7465 0.0568548C24.7465 0.0568548 30.2137 5.55599 19.5612 14.0116C11.0192 20.7947 17.6134 24.6622 19.5577 29.0809C14.5715 24.5576 10.9122 20.5755 13.3672 16.8695C16.9703 11.429 26.9523 8.79144 24.7465 0.0567017" fill="#E76F00"/>
<path d="M14.5135 52.7955C23.9891 53.4055 38.5399 52.4571 38.8845 47.9489C38.8845 47.9489 38.2221 49.6581 31.0535 51.0153C22.9658 52.5455 12.991 52.3669 7.07471 51.3861C7.07486 51.3861 8.28584 52.394 14.5137 52.7955" fill="#5382A1"/>
</g>
<defs>
<clipPath id="clip0_256_159">
<rect width="39" height="53" fill="white"/>
</clipPath>
</defs>
</svg>
