<svg width="54" height="33" viewBox="0 0 54 33" fill="none" xmlns="http://www.w3.org/2000/svg">
<g clip-path="url(#clip0_256_140)">
<path d="M26.6952 32.9048C26.5124 32.9048 26.3418 32.8562 26.1833 32.7712L24.5621 31.8117C24.3183 31.678 24.4402 31.6295 24.5134 31.6052C24.8424 31.4959 24.9034 31.4715 25.2447 31.2773C25.2813 31.2529 25.3301 31.2651 25.3666 31.2894L26.61 32.0303C26.6587 32.0546 26.7197 32.0546 26.7562 32.0303L31.6199 29.2245C31.6686 29.2002 31.6931 29.1515 31.6931 29.0909V23.4914C31.6931 23.4305 31.6686 23.3821 31.6199 23.3577L26.7562 20.5641C26.7075 20.5397 26.6465 20.5397 26.61 20.5641L21.7463 23.3577C21.6976 23.382 21.6731 23.4427 21.6731 23.4913V29.0908C21.6731 29.1394 21.6976 29.2001 21.7463 29.2245L23.075 29.9897C23.7942 30.354 24.2452 29.9289 24.2452 29.5038V23.9771C24.2452 23.9043 24.3061 23.8314 24.3915 23.8314H25.0131C25.0863 23.8314 25.1594 23.8921 25.1594 23.9771V29.5038C25.1594 30.4633 24.6352 31.0221 23.721 31.0221C23.4407 31.0221 23.2213 31.0221 22.5995 30.7184L21.3197 29.9897C21.0028 29.8075 20.8077 29.4673 20.8077 29.103V23.5035C20.8077 23.1391 21.0028 22.7989 21.3197 22.6168L26.1833 19.8109C26.4881 19.6409 26.9026 19.6409 27.2073 19.8109L32.0709 22.6168C32.3878 22.7989 32.5829 23.1391 32.5829 23.5035V29.103C32.5829 29.4673 32.3878 29.8075 32.0709 29.9897L27.2073 32.7955C27.0487 32.8684 26.866 32.9048 26.6953 32.9048H26.6952ZM28.1946 29.0544C26.0615 29.0544 25.6226 28.0827 25.6226 27.2568C25.6226 27.1838 25.6836 27.111 25.7689 27.111H26.4028C26.4758 27.111 26.5368 27.1595 26.5368 27.2325C26.6344 27.8762 26.9147 28.192 28.2068 28.192C29.2307 28.192 29.6696 27.9612 29.6696 27.4146C29.6696 27.0988 29.5476 26.8681 27.9508 26.7102C26.6221 26.5765 25.7932 26.285 25.7932 25.2283C25.7932 24.2444 26.6222 23.6613 28.0118 23.6613C29.572 23.6613 30.34 24.1958 30.4376 25.3618C30.4376 25.3983 30.4253 25.4347 30.401 25.4712C30.3765 25.4955 30.34 25.5197 30.3034 25.5197H29.6695C29.6086 25.5197 29.5476 25.4712 29.5355 25.4104C29.3892 24.7424 29.0113 24.5237 28.0118 24.5237C26.8903 24.5237 26.7562 24.9125 26.7562 25.2039C26.7562 25.5562 26.9147 25.6655 28.4262 25.8598C29.9255 26.0542 30.6326 26.3336 30.6326 27.3781C30.6203 28.4471 29.7427 29.0544 28.1946 29.0544Z" fill="#539E43"/>
<path d="M11.6046 11.0048C11.6046 10.7862 11.4826 10.5796 11.2876 10.4703L6.11924 7.50658C6.03381 7.45792 5.93636 7.43364 5.83891 7.42145H5.79007C5.69262 7.42145 5.59506 7.45792 5.50974 7.50658L0.341348 10.4703C0.14623 10.5796 0.0244141 10.7861 0.0244141 11.0048L0.0366484 18.9728C0.0366484 19.0821 0.0976094 19.1914 0.195063 19.2401C0.292621 19.3008 0.414438 19.3008 0.499867 19.2401L3.57164 17.491C3.76666 17.3817 3.88858 17.1752 3.88858 16.9566V13.2276C3.88858 13.009 4.01039 12.8025 4.20551 12.6932L5.50974 11.94C5.6073 11.8793 5.71698 11.8549 5.82667 11.8549C5.93636 11.8549 6.04605 11.8793 6.13148 11.94L7.4357 12.6932C7.63082 12.8025 7.75264 13.0089 7.75264 13.2276V16.9566C7.75264 17.1752 7.87456 17.3817 8.06957 17.491L11.1413 19.2401C11.1888 19.2698 11.2437 19.2856 11.2998 19.2856C11.3559 19.2856 11.4108 19.2698 11.4583 19.2401C11.5558 19.1914 11.6168 19.0821 11.6168 18.9728L11.6046 11.0048ZM36.447 0.0364944C36.3495 -0.0121648 36.2276 -0.0121648 36.1422 0.0364944C36.0447 0.0972397 35.9838 0.194348 35.9838 0.303647V8.19895C35.9838 8.27178 35.9473 8.34461 35.8741 8.39327C35.801 8.42964 35.7278 8.42964 35.6547 8.39327L34.3626 7.65235C34.2679 7.5986 34.1608 7.57034 34.0517 7.57034C33.9427 7.57034 33.8356 7.5986 33.7409 7.65235L28.5725 10.6282C28.3775 10.7375 28.2556 10.944 28.2556 11.1626V17.1022C28.2556 17.3208 28.3775 17.5274 28.5725 17.6367L33.7409 20.6126C33.8356 20.6664 33.9427 20.6946 34.0517 20.6946C34.1608 20.6946 34.2679 20.6664 34.3626 20.6126L39.531 17.6367C39.726 17.5274 39.8479 17.3209 39.8479 17.1022V2.29573C39.8479 2.06494 39.726 1.85854 39.531 1.74913L36.4471 0.0364944H36.447ZM35.9716 15.1467C35.9716 15.2075 35.9473 15.256 35.8984 15.2803L34.131 16.3006C34.1063 16.3126 34.0792 16.3188 34.0517 16.3188C34.0243 16.3188 33.9972 16.3126 33.9725 16.3006L32.205 15.2803C32.1562 15.256 32.1318 15.1953 32.1318 15.1467V13.1061C32.1318 13.0453 32.1562 12.9968 32.205 12.9725L33.9725 11.9521C33.9972 11.9401 34.0243 11.9339 34.0517 11.9339C34.0792 11.9339 34.1063 11.9401 34.131 11.9521L35.8984 12.9725C35.9473 12.9967 35.9716 13.0575 35.9716 13.1061V15.1467ZM53.6465 13.0575C53.8416 12.9482 53.9513 12.7417 53.9513 12.523V11.0776C53.9513 10.859 53.8294 10.6525 53.6465 10.5432L48.5147 7.57952C48.42 7.52577 48.3129 7.49751 48.2039 7.49751C48.0948 7.49751 47.9877 7.52577 47.893 7.57952L42.7246 10.5553C42.5295 10.6646 42.4077 10.8711 42.4077 11.0897V17.0294C42.4077 17.248 42.5296 17.4545 42.7246 17.5638L47.8564 20.4789C48.0515 20.5882 48.2831 20.5882 48.466 20.4789L51.5743 18.7543C51.6718 18.7057 51.7328 18.5964 51.7328 18.4871C51.7328 18.3778 51.6718 18.2685 51.5743 18.2198L46.3815 15.2439C46.284 15.1832 46.223 15.0861 46.223 14.9768V13.1184C46.223 13.0091 46.284 12.8998 46.3815 12.8511L48.0027 11.928C48.0501 11.8982 48.1051 11.8824 48.1611 11.8824C48.2172 11.8824 48.2722 11.8982 48.3196 11.928L49.9409 12.8511C50.0384 12.9119 50.0993 13.009 50.0993 13.1184V14.5759C50.0993 14.6852 50.1603 14.7945 50.2578 14.8431C50.3053 14.8729 50.3602 14.8887 50.4163 14.8887C50.4724 14.8887 50.5273 14.8729 50.5747 14.8431L53.6465 13.0575Z" fill="#63B547"/>
<path d="M48.1245 12.7781C48.1426 12.7662 48.1638 12.7598 48.1855 12.7598C48.2072 12.7598 48.2284 12.7662 48.2465 12.7781L49.2339 13.3489C49.2704 13.3733 49.2947 13.4097 49.2947 13.4582V14.6001C49.2947 14.6486 49.2705 14.6851 49.2339 14.7094L48.2465 15.2803C48.2284 15.2922 48.2072 15.2985 48.1855 15.2985C48.1638 15.2985 48.1426 15.2922 48.1245 15.2803L47.1373 14.7094C47.1007 14.6851 47.0763 14.6486 47.0763 14.6001V13.4583C47.0763 13.4097 47.1006 13.3732 47.1373 13.349L48.1245 12.7781Z" fill="#539E43"/>
<path d="M25.391 10.5553L20.2349 7.60384C20.1842 7.57834 20.1311 7.55799 20.0764 7.54309L14.2985 17.4061C14.3463 17.4643 14.4041 17.5137 14.4692 17.5519L19.6254 20.5035C19.7717 20.5885 19.9423 20.6128 20.1007 20.5641L25.5252 10.6769C25.4886 10.6284 25.4398 10.5918 25.391 10.5554V10.5553Z" fill="url(#paint0_linear_256_140)"/>
<path fill-rule="evenodd" clip-rule="evenodd" d="M19.4547 6.52271L19.3816 6.55917H19.479L19.4547 6.52271Z" fill="url(#paint1_linear_256_140)"/>
<path fill-rule="evenodd" clip-rule="evenodd" d="M25.4032 17.5396C25.5495 17.4545 25.6592 17.3088 25.708 17.1509L20.0518 7.53089C19.9055 7.50661 19.747 7.5187 19.6131 7.60372L14.4934 10.5432L20.0152 20.5762C20.0955 20.5631 20.1735 20.5386 20.2468 20.5034L25.4031 17.5397L25.4032 17.5396Z" fill="url(#paint2_linear_256_140)"/>
<path fill-rule="evenodd" clip-rule="evenodd" d="M25.8786 17.4425L25.842 17.3817V17.4667L25.8785 17.4425H25.8786Z" fill="url(#paint3_linear_256_140)"/>
<path fill-rule="evenodd" clip-rule="evenodd" d="M25.4032 17.5396L20.2592 20.4912C20.1866 20.5281 20.1083 20.5527 20.0276 20.564L20.1251 20.7462L25.8298 17.4547V17.3817L25.6836 17.1387C25.6592 17.3088 25.5495 17.4545 25.4032 17.5396Z" fill="url(#paint4_linear_256_140)"/>
<path fill-rule="evenodd" clip-rule="evenodd" d="M25.4032 17.5396L20.2592 20.4912C20.1866 20.5281 20.1083 20.5527 20.0276 20.564L20.1251 20.7462L25.8298 17.4547V17.3817L25.6836 17.1387C25.6592 17.3088 25.5495 17.4545 25.4032 17.5396Z" fill="url(#paint5_linear_256_140)"/>
</g>
<defs>
<linearGradient id="paint0_linear_256_140" x1="19.1571" y1="14.7404" x2="33.2216" y2="7.07187" gradientUnits="userSpaceOnUse">
<stop offset="0.1376" stop-color="#41873F"/>
<stop offset="0.4032" stop-color="#54A044"/>
<stop offset="0.7136" stop-color="#66B848"/>
<stop offset="0.9081" stop-color="#6CC04A"/>
</linearGradient>
<linearGradient id="paint1_linear_256_140" x1="15.0802" y1="6.5276" x2="24.5738" y2="6.5276" gradientUnits="userSpaceOnUse">
<stop offset="0.09192" stop-color="#6CC04A"/>
<stop offset="0.2864" stop-color="#66B848"/>
<stop offset="0.5968" stop-color="#54A044"/>
<stop offset="0.8624" stop-color="#41873F"/>
</linearGradient>
<linearGradient id="paint2_linear_256_140" x1="14.0012" y1="14.0476" x2="25.8761" y2="14.0476" gradientUnits="userSpaceOnUse">
<stop offset="0.09192" stop-color="#6CC04A"/>
<stop offset="0.2864" stop-color="#66B848"/>
<stop offset="0.5968" stop-color="#54A044"/>
<stop offset="0.8624" stop-color="#41873F"/>
</linearGradient>
<linearGradient id="paint3_linear_256_140" x1="22.287" y1="17.4125" x2="25.8523" y2="17.4125" gradientUnits="userSpaceOnUse">
<stop offset="0.09192" stop-color="#6CC04A"/>
<stop offset="0.2864" stop-color="#66B848"/>
<stop offset="0.5968" stop-color="#54A044"/>
<stop offset="0.8624" stop-color="#41873F"/>
</linearGradient>
<linearGradient id="paint4_linear_256_140" x1="14.0013" y1="18.9524" x2="25.8761" y2="18.9524" gradientUnits="userSpaceOnUse">
<stop offset="0.09192" stop-color="#6CC04A"/>
<stop offset="0.2864" stop-color="#66B848"/>
<stop offset="0.5968" stop-color="#54A044"/>
<stop offset="0.8624" stop-color="#41873F"/>
</linearGradient>
<linearGradient id="paint5_linear_256_140" x1="27.6061" y1="9.5244" x2="24.6183" y2="25.2362" gradientUnits="userSpaceOnUse">
<stop stop-color="#41873F"/>
<stop offset="0.3288" stop-color="#418B3D"/>
<stop offset="0.6352" stop-color="#419637"/>
<stop offset="0.9319" stop-color="#3FA92D"/>
<stop offset="1" stop-color="#3FAE2A"/>
</linearGradient>
<clipPath id="clip0_256_140">
<rect width="54" height="33" fill="white"/>
</clipPath>
</defs>
</svg>
