<svg width="45" height="39" viewBox="0 0 45 39" fill="none" xmlns="http://www.w3.org/2000/svg">
<g clip-path="url(#clip0_256_98)">
<path d="M36.999 12.6279C36.5201 12.4681 36.0371 12.3199 35.5505 12.1837C35.6323 11.8587 35.7075 11.5377 35.7743 11.2222C36.8708 6.04259 36.154 1.86976 33.7055 0.495864C31.358 -0.821241 27.5187 0.55214 23.6413 3.83584C23.2592 4.16004 22.8856 4.49358 22.5207 4.83615C22.2765 4.60836 22.028 4.38498 21.7753 4.16614C17.7115 0.655114 13.6383 -0.824663 11.1925 0.553166C8.84707 1.87438 8.15256 5.79713 9.13975 10.706C9.23796 11.1922 9.34886 11.6758 9.47232 12.1565C8.89576 12.3159 8.33941 12.4856 7.80697 12.6663C3.0426 14.2827 0 16.8158 0 19.4434C0 22.1571 3.26637 24.8791 8.22867 26.5296C8.63097 26.6628 9.03663 26.7863 9.44525 26.8999C9.31254 27.4176 9.19472 27.9388 9.09193 28.463C8.1508 33.2867 8.88574 37.1167 11.2249 38.4295C13.6408 39.7853 17.6957 38.3919 21.6439 35.0333C21.9641 34.7602 22.2772 34.4794 22.583 34.1912C22.978 34.5621 23.3837 34.9223 23.7994 35.2712C27.624 38.4737 31.4012 39.7668 33.738 38.4504C36.1517 37.0907 36.9362 32.9762 35.9177 27.9703C35.8375 27.5782 35.7475 27.1879 35.6479 26.8C35.9327 26.7179 36.2122 26.6334 36.4846 26.5455C41.6435 24.8823 45 22.1934 45 19.4434C45 16.8062 41.8591 14.256 36.999 12.6279ZM35.8801 24.7699C35.634 24.8491 35.3816 24.9256 35.1243 25C34.5547 23.2455 33.7862 21.38 32.8456 19.4524C33.7431 17.5709 34.4821 15.7291 35.0357 13.9861C35.496 14.1158 35.9427 14.2524 36.3734 14.3966C40.5376 15.7917 43.0777 17.8541 43.0777 19.4434C43.0777 21.1361 40.3344 23.3336 35.8801 24.7699ZM34.032 28.3337C34.4823 30.5471 34.5465 32.5484 34.2482 34.113C33.9803 35.5189 33.4413 36.4561 32.7748 36.8316C31.3567 37.6304 28.324 36.5921 25.0532 33.8532C24.6666 33.5288 24.2893 33.1939 23.9217 32.8491C25.1898 31.4997 26.457 29.9309 27.6938 28.1886C29.8693 28.0008 31.9245 27.6936 33.7883 27.2743C33.8781 27.6255 33.9593 27.9787 34.032 28.3337ZM15.3415 36.6935C13.956 37.1695 12.8524 37.1832 12.1853 36.809C10.7659 36.0124 10.1758 32.937 10.9807 28.8119C11.0764 28.3245 11.1859 27.8397 11.3092 27.3581C13.1525 27.755 15.1928 28.0403 17.3733 28.2124C18.6186 29.9173 19.9223 31.4843 21.2363 32.8565C20.9571 33.1194 20.6712 33.3756 20.379 33.6248C18.633 35.1099 16.8834 36.1636 15.3415 36.6935ZM8.85059 24.7595C6.65631 24.0296 4.84418 23.0811 3.60211 22.0461C2.4859 21.1161 1.92252 20.1926 1.92252 19.4434C1.92252 17.8488 4.36535 15.815 8.43979 14.4327C8.93426 14.2651 9.45176 14.1069 9.98877 13.9584C10.552 15.7408 11.2906 17.6044 12.182 19.4889C11.279 21.4012 10.5298 23.2946 9.96117 25.098C9.58818 24.9941 9.21788 24.8812 8.85059 24.7595ZM11.0264 10.3466C10.1807 6.14094 10.7423 2.96843 12.1558 2.17218C13.6612 1.3241 16.9901 2.53327 20.4989 5.56501C20.7277 5.76315 20.9528 5.96531 21.1741 6.17139C19.8666 7.53759 18.5748 9.09297 17.3406 10.7878C15.2242 10.9787 13.1984 11.2852 11.3358 11.6959C11.221 11.2488 11.1179 10.7989 11.0264 10.3468V10.3466ZM30.4374 15.0109C29.9975 14.2714 29.5412 13.5412 29.0689 12.8209C30.5047 12.9976 31.8804 13.2321 33.1722 13.5188C32.7844 14.7285 32.301 15.9931 31.732 17.2896C31.3161 16.5217 30.8845 15.762 30.4374 15.0109ZM22.5216 7.50834C23.4083 8.44314 24.2963 9.48673 25.1698 10.6191C23.3979 10.5377 21.6231 10.5373 19.8512 10.6181C20.7255 9.49614 21.6211 8.45392 22.5216 7.50834ZM14.555 15.0237C14.1135 15.7688 13.69 16.5238 13.2847 17.2881C12.725 15.9961 12.246 14.7257 11.8549 13.4989C13.1388 13.2194 14.5079 12.9909 15.9346 12.8175C15.457 13.5422 14.9971 14.2778 14.555 15.0235V15.0237ZM15.9755 26.2023C14.5016 26.0422 13.1119 25.8255 11.8283 25.5535C12.2256 24.3049 12.7151 23.0074 13.287 21.6877C13.6939 22.4526 14.1192 23.2081 14.5626 23.9535C15.0186 24.7198 15.4907 25.4704 15.9755 26.2023ZM22.5747 31.5101C21.6635 30.5536 20.7547 29.4953 19.8671 28.3571C20.7288 28.3899 21.6072 28.4067 22.5 28.4067C23.4172 28.4067 24.3239 28.3867 25.2163 28.348C24.3401 29.5067 23.4554 30.5666 22.5747 31.5101ZM31.7501 21.6203C32.3517 22.9546 32.8586 24.2452 33.2612 25.4725C31.9565 25.7622 30.5478 25.9955 29.0635 26.1688C29.5391 25.4351 29.9997 24.6922 30.445 23.9407C30.8977 23.1768 31.3328 22.4031 31.7501 21.6203ZM28.7798 23.0061C28.0981 24.1583 27.3782 25.2887 26.621 26.3955C25.2495 26.49 23.875 26.5369 22.5 26.5362C21.0996 26.5362 19.7374 26.4938 18.4257 26.411C17.6488 25.3068 16.9151 24.1745 16.2262 23.0163H16.2264C15.5407 21.8643 14.9002 20.6873 14.3063 19.488C14.8987 18.2884 15.5372 17.1109 16.2206 15.958L16.2204 15.9582C16.9035 14.805 17.6313 13.6774 18.4024 12.578C19.7406 12.4795 21.1129 12.4282 22.4998 12.4282H22.5C23.8932 12.4282 25.2673 12.48 26.6052 12.5792C27.3685 13.677 28.0917 14.8006 28.7735 15.9481C29.4591 17.0984 30.1061 18.2702 30.7134 19.4615C30.1123 20.665 29.4674 21.8472 28.7798 23.0061ZM32.7454 2.11642C34.2522 2.9621 34.8383 6.37238 33.8915 10.8445C33.831 11.1299 33.7632 11.4205 33.6894 11.7152C31.8222 11.2958 29.7949 10.984 27.6724 10.7902C26.4359 9.07672 25.1546 7.51894 23.8685 6.17036C24.2055 5.85417 24.5506 5.54619 24.9035 5.24668C28.2257 2.43338 31.3307 1.32256 32.7454 2.11642ZM22.5 15.5331C24.7192 15.5331 26.5184 17.2838 26.5184 19.4434C26.5184 21.6029 24.7192 23.3536 22.5 23.3536C20.2808 23.3536 18.4816 21.6029 18.4816 19.4434C18.4816 17.2838 20.2808 15.5331 22.5 15.5331Z" fill="#00D8FF"/>
</g>
<defs>
<clipPath id="clip0_256_98">
<rect width="45" height="39" fill="white"/>
</clipPath>
</defs>
</svg>
